<?xml version="1.0" encoding="UTF-8"?>
<svg id="Layer_1" data-name="Layer 1" xmlns="http://www.w3.org/2000/svg" viewBox="0 0 355.87 54.88">
  <defs>
    <style>
      .cls-1 {
        fill: #f67727;
      }

      .cls-2 {
        fill: #ccc;
      }
    </style>
  </defs>
  <path class="cls-2" d="m309.75,54.88s.8-9.32,1.35-12.9,1.51-7.25,1.51-7.25c0,0-4.62-3.88-6.93-6.16s-7.09-7.54-7.09-7.54c0,0,8.36-1.91,10.2-2.07s9.08-1.35,9.08-1.35c0,0,3.19-7.01,4.06-8.6s4.86-9,4.86-9c0,0,5.89,10.28,6.21,11.15s2.79,6.53,2.79,6.53c0,0,5.92.69,8.76,1.04,3.27.4,11.31,2.15,11.31,2.15,0,0-4.7,4.71-7.61,7.45-2.87,2.71-6.8,6.39-6.8,6.39,0,0,.74,3.73,1.38,7.28s1.47,12.89,1.47,12.89c0,0-6.24-3.08-8.69-4.6-2.24-1.39-8.83-4.72-8.83-4.72,0,0-6.61,3.74-7.81,4.38s-9.24,4.94-9.24,4.94Z"/>
  <path class="cls-1" d="m234.51,54.88s.8-9.32,1.35-12.9,1.51-7.25,1.51-7.25c0,0-4.62-3.88-6.93-6.16s-7.09-7.54-7.09-7.54c0,0,8.36-1.91,10.2-2.07s9.08-1.35,9.08-1.35c0,0,3.19-7.01,4.06-8.6s4.86-9,4.86-9c0,0,5.89,10.28,6.21,11.15s2.79,6.53,2.79,6.53c0,0,5.92.69,8.76,1.04,3.27.4,11.31,2.15,11.31,2.15,0,0-4.7,4.71-7.61,7.45-2.87,2.71-6.8,6.39-6.8,6.39,0,0,.74,3.73,1.38,7.28s1.47,12.89,1.47,12.89c0,0-6.24-3.08-8.69-4.6-2.24-1.39-8.83-4.72-8.83-4.72,0,0-6.61,3.74-7.81,4.38s-9.24,4.94-9.24,4.94Z"/>
  <path class="cls-1" d="m160.33,54.88s.8-9.32,1.35-12.9,1.51-7.25,1.51-7.25c0,0-4.62-3.88-6.93-6.16s-7.09-7.54-7.09-7.54c0,0,8.36-1.91,10.2-2.07s9.08-1.35,9.08-1.35c0,0,3.19-7.01,4.06-8.6s4.86-9,4.86-9c0,0,5.89,10.28,6.21,11.15s2.79,6.53,2.79,6.53c0,0,5.92.69,8.76,1.04,3.27.4,11.31,2.15,11.31,2.15,0,0-4.7,4.71-7.61,7.45-2.87,2.71-6.8,6.39-6.8,6.39,0,0,.74,3.73,1.38,7.28s1.47,12.89,1.47,12.89c0,0-6.24-3.08-8.69-4.6-2.24-1.39-8.83-4.72-8.83-4.72,0,0-6.61,3.74-7.81,4.38s-9.24,4.94-9.24,4.94Z"/>
  <path class="cls-1" d="m85.56,54.88s.8-9.32,1.35-12.9,1.51-7.25,1.51-7.25c0,0-4.62-3.88-6.93-6.16s-7.09-7.54-7.09-7.54c0,0,8.36-1.91,10.2-2.07s9.08-1.35,9.08-1.35c0,0,3.19-7.01,4.06-8.6s4.86-9,4.86-9c0,0,5.89,10.28,6.21,11.15s2.79,6.53,2.79,6.53c0,0,5.92.69,8.76,1.04,3.27.4,11.31,2.15,11.31,2.15,0,0-4.7,4.71-7.61,7.45-2.87,2.71-6.8,6.39-6.8,6.39,0,0,.74,3.73,1.38,7.28s1.47,12.89,1.47,12.89c0,0-6.24-3.08-8.69-4.6-2.24-1.39-8.83-4.72-8.83-4.72,0,0-6.61,3.74-7.81,4.38s-9.24,4.94-9.24,4.94Z"/>
  <path class="cls-1" d="m11.15,54.88s.8-9.32,1.35-12.9,1.51-7.25,1.51-7.25c0,0-4.62-3.88-6.93-6.16S0,21.03,0,21.03c0,0,8.36-1.91,10.2-2.07s9.08-1.35,9.08-1.35c0,0,3.19-7.01,4.06-8.6S28.2,0,28.2,0c0,0,5.89,10.28,6.21,11.15s2.79,6.53,2.79,6.53c0,0,5.92.69,8.76,1.04,3.27.4,11.31,2.15,11.31,2.15,0,0-4.7,4.71-7.61,7.45-2.87,2.71-6.8,6.39-6.8,6.39,0,0,.74,3.73,1.38,7.28s1.47,12.89,1.47,12.89c0,0-6.24-3.08-8.69-4.6-2.24-1.39-8.83-4.72-8.83-4.72,0,0-6.61,3.74-7.81,4.38s-9.24,4.94-9.24,4.94Z"/>
</svg>